<mxfile host="app.diagrams.net" modified="2021-09-15T15:28:22.533Z" agent="5.0 (Macintosh; Intel Mac OS X 10_15_7) AppleWebKit/537.36 (KHTML, like Gecko) Chrome/93.0.4577.63 Safari/537.36" etag="wxL-vSU1MjBkTNfSc1iU" version="15.2.7" type="github">
  <diagram id="KcgvSHTCboE4x2ObBVBz" name="Page-1">
    <mxGraphModel dx="946" dy="478" grid="0" gridSize="10" guides="1" tooltips="1" connect="1" arrows="0" fold="1" page="1" pageScale="1" pageWidth="850" pageHeight="1100" math="0" shadow="0">
      <root>
        <mxCell id="0" />
        <mxCell id="1" parent="0" />
        <mxCell id="s2j03w_9j3l06wGRW7c5-1" value="jw6602" style="ellipse;shape=cloud;whiteSpace=wrap;html=1;" parent="1" vertex="1">
          <mxGeometry x="14" y="15" width="120" height="80" as="geometry" />
        </mxCell>
        <mxCell id="7Rne0SJ-TNoe7tRfoJeC-3" value="A" style="ellipse;whiteSpace=wrap;html=1;dashed=1;" parent="1" vertex="1">
          <mxGeometry x="259" y="37" width="100" height="40" as="geometry" />
        </mxCell>
        <mxCell id="7Rne0SJ-TNoe7tRfoJeC-4" value="C" style="ellipse;whiteSpace=wrap;html=1;" parent="1" vertex="1">
          <mxGeometry x="125" y="76" width="100" height="30" as="geometry" />
        </mxCell>
        <mxCell id="7Rne0SJ-TNoe7tRfoJeC-5" value="" style="endArrow=none;html=1;" parent="1" edge="1">
          <mxGeometry width="50" height="50" relative="1" as="geometry">
            <mxPoint x="309" y="102" as="sourcePoint" />
            <mxPoint x="309" y="78" as="targetPoint" />
          </mxGeometry>
        </mxCell>
        <mxCell id="7Rne0SJ-TNoe7tRfoJeC-8" value="&lt;u&gt;B&lt;/u&gt;" style="ellipse;whiteSpace=wrap;html=1;" parent="1" vertex="1">
          <mxGeometry x="530" y="40" width="100" height="30" as="geometry" />
        </mxCell>
        <mxCell id="7Rne0SJ-TNoe7tRfoJeC-9" value="" style="endArrow=none;html=1;exitX=0;exitY=0.25;exitDx=0;exitDy=0;" parent="1" edge="1">
          <mxGeometry width="50" height="50" relative="1" as="geometry">
            <mxPoint x="259" y="107.5" as="sourcePoint" />
            <mxPoint x="225" y="91" as="targetPoint" />
          </mxGeometry>
        </mxCell>
        <mxCell id="7Rne0SJ-TNoe7tRfoJeC-15" value="" style="endArrow=none;html=1;exitX=1;exitY=0.5;exitDx=0;exitDy=0;" parent="1" edge="1">
          <mxGeometry width="50" height="50" relative="1" as="geometry">
            <mxPoint x="359" y="115" as="sourcePoint" />
            <mxPoint x="394" y="115" as="targetPoint" />
          </mxGeometry>
        </mxCell>
        <mxCell id="7Rne0SJ-TNoe7tRfoJeC-16" value="" style="rounded=0;whiteSpace=wrap;html=1;" parent="1" vertex="1">
          <mxGeometry x="259" y="100" width="100" height="30" as="geometry" />
        </mxCell>
        <mxCell id="7Rne0SJ-TNoe7tRfoJeC-18" value="D" style="rounded=0;whiteSpace=wrap;html=1;" parent="1" vertex="1">
          <mxGeometry x="264" y="104" width="91" height="22" as="geometry" />
        </mxCell>
        <mxCell id="7Rne0SJ-TNoe7tRfoJeC-22" value="" style="rhombus;whiteSpace=wrap;html=1;direction=north;" parent="1" vertex="1">
          <mxGeometry x="395" y="100" width="99" height="31" as="geometry" />
        </mxCell>
        <mxCell id="7Rne0SJ-TNoe7tRfoJeC-23" value="" style="endArrow=classic;html=1;" parent="1" edge="1">
          <mxGeometry width="50" height="50" relative="1" as="geometry">
            <mxPoint x="494" y="115" as="sourcePoint" />
            <mxPoint x="530" y="115" as="targetPoint" />
          </mxGeometry>
        </mxCell>
        <mxCell id="7Rne0SJ-TNoe7tRfoJeC-24" value="F" style="rounded=0;whiteSpace=wrap;html=1;" parent="1" vertex="1">
          <mxGeometry x="530" y="100" width="100" height="30" as="geometry" />
        </mxCell>
        <mxCell id="7Rne0SJ-TNoe7tRfoJeC-25" value="E" style="rhombus;whiteSpace=wrap;html=1;direction=west;" parent="1" vertex="1">
          <mxGeometry x="406" y="100" width="78" height="30" as="geometry" />
        </mxCell>
        <mxCell id="7Rne0SJ-TNoe7tRfoJeC-27" value="" style="endArrow=none;dashed=1;html=1;shadow=0;strokeWidth=1;dashPattern=1 1;" parent="1" edge="1">
          <mxGeometry width="50" height="50" relative="1" as="geometry">
            <mxPoint x="169" y="99" as="sourcePoint" />
            <mxPoint x="181" y="99" as="targetPoint" />
          </mxGeometry>
        </mxCell>
        <mxCell id="7Rne0SJ-TNoe7tRfoJeC-29" value="" style="endArrow=none;html=1;shadow=0;strokeWidth=1;entryX=0.5;entryY=1;entryDx=0;entryDy=0;" parent="1" target="7Rne0SJ-TNoe7tRfoJeC-8" edge="1">
          <mxGeometry width="50" height="50" relative="1" as="geometry">
            <mxPoint x="580" y="100" as="sourcePoint" />
            <mxPoint x="580" y="74" as="targetPoint" />
          </mxGeometry>
        </mxCell>
        <mxCell id="7Rne0SJ-TNoe7tRfoJeC-40" value="G" style="ellipse;whiteSpace=wrap;html=1;" parent="1" vertex="1">
          <mxGeometry x="661" y="100" width="100" height="30" as="geometry" />
        </mxCell>
        <mxCell id="7Rne0SJ-TNoe7tRfoJeC-41" value="" style="endArrow=none;html=1;shadow=0;strokeWidth=1;entryX=0;entryY=0.5;entryDx=0;entryDy=0;exitX=1;exitY=0.5;exitDx=0;exitDy=0;" parent="1" source="7Rne0SJ-TNoe7tRfoJeC-24" target="7Rne0SJ-TNoe7tRfoJeC-40" edge="1">
          <mxGeometry width="50" height="50" relative="1" as="geometry">
            <mxPoint x="634" y="115" as="sourcePoint" />
            <mxPoint x="651" y="114.5" as="targetPoint" />
          </mxGeometry>
        </mxCell>
        <mxCell id="7Rne0SJ-TNoe7tRfoJeC-43" value="" style="triangle;whiteSpace=wrap;html=1;direction=north;rotation=0;" parent="1" vertex="1">
          <mxGeometry x="542" y="156" width="76" height="52" as="geometry" />
        </mxCell>
        <mxCell id="7Rne0SJ-TNoe7tRfoJeC-45" value="" style="endArrow=none;html=1;shadow=0;strokeWidth=1;entryX=0.5;entryY=1;entryDx=0;entryDy=0;" parent="1" target="7Rne0SJ-TNoe7tRfoJeC-24" edge="1">
          <mxGeometry width="50" height="50" relative="1" as="geometry">
            <mxPoint x="580" y="155" as="sourcePoint" />
            <mxPoint x="579.5" y="130" as="targetPoint" />
          </mxGeometry>
        </mxCell>
        <mxCell id="7Rne0SJ-TNoe7tRfoJeC-48" value="M" style="rounded=0;whiteSpace=wrap;html=1;" parent="1" vertex="1">
          <mxGeometry x="457" y="237" width="100" height="30" as="geometry" />
        </mxCell>
        <mxCell id="7Rne0SJ-TNoe7tRfoJeC-49" value="N" style="rounded=0;whiteSpace=wrap;html=1;" parent="1" vertex="1">
          <mxGeometry x="601" y="237" width="100" height="30" as="geometry" />
        </mxCell>
        <mxCell id="7Rne0SJ-TNoe7tRfoJeC-50" value="" style="endArrow=none;html=1;shadow=0;strokeWidth=1;exitX=0.5;exitY=0;exitDx=0;exitDy=0;entryX=0;entryY=0.25;entryDx=0;entryDy=0;" parent="1" source="7Rne0SJ-TNoe7tRfoJeC-48" target="7Rne0SJ-TNoe7tRfoJeC-43" edge="1">
          <mxGeometry width="50" height="50" relative="1" as="geometry">
            <mxPoint x="546" y="227" as="sourcePoint" />
            <mxPoint x="572" y="208" as="targetPoint" />
          </mxGeometry>
        </mxCell>
        <mxCell id="7Rne0SJ-TNoe7tRfoJeC-51" value="" style="endArrow=none;html=1;shadow=0;strokeWidth=1;entryX=0.5;entryY=0;entryDx=0;entryDy=0;exitX=0;exitY=0.75;exitDx=0;exitDy=0;" parent="1" source="7Rne0SJ-TNoe7tRfoJeC-43" target="7Rne0SJ-TNoe7tRfoJeC-49" edge="1">
          <mxGeometry width="50" height="50" relative="1" as="geometry">
            <mxPoint x="601" y="208" as="sourcePoint" />
            <mxPoint x="652" y="249" as="targetPoint" />
          </mxGeometry>
        </mxCell>
        <mxCell id="7Rne0SJ-TNoe7tRfoJeC-52" value="" style="rounded=0;whiteSpace=wrap;html=1;" parent="1" vertex="1">
          <mxGeometry x="249.5" y="168" width="116.5" height="50" as="geometry" />
        </mxCell>
        <mxCell id="7Rne0SJ-TNoe7tRfoJeC-53" value="J" style="rhombus;whiteSpace=wrap;html=1;direction=south;" parent="1" vertex="1">
          <mxGeometry x="250" y="169" width="116" height="49" as="geometry" />
        </mxCell>
        <mxCell id="7Rne0SJ-TNoe7tRfoJeC-54" value="" style="endArrow=none;html=1;shadow=0;strokeWidth=1;" parent="1" edge="1">
          <mxGeometry width="50" height="50" relative="1" as="geometry">
            <mxPoint x="307.25" y="167" as="sourcePoint" />
            <mxPoint x="307.25" y="131" as="targetPoint" />
          </mxGeometry>
        </mxCell>
        <mxCell id="7Rne0SJ-TNoe7tRfoJeC-55" value="" style="endArrow=none;html=1;shadow=0;strokeWidth=1;" parent="1" edge="1">
          <mxGeometry width="50" height="50" relative="1" as="geometry">
            <mxPoint x="213.5" y="208" as="sourcePoint" />
            <mxPoint x="249.5" y="208" as="targetPoint" />
          </mxGeometry>
        </mxCell>
        <mxCell id="7Rne0SJ-TNoe7tRfoJeC-56" value="I" style="ellipse;whiteSpace=wrap;html=1;" parent="1" vertex="1">
          <mxGeometry x="113" y="193" width="100" height="30" as="geometry" />
        </mxCell>
        <mxCell id="7Rne0SJ-TNoe7tRfoJeC-57" value="" style="ellipse;whiteSpace=wrap;html=1;" parent="1" vertex="1">
          <mxGeometry x="125" y="124" width="100" height="30" as="geometry" />
        </mxCell>
        <mxCell id="7Rne0SJ-TNoe7tRfoJeC-58" value="H" style="ellipse;whiteSpace=wrap;html=1;" parent="1" vertex="1">
          <mxGeometry x="128" y="127" width="94" height="24" as="geometry" />
        </mxCell>
        <mxCell id="7Rne0SJ-TNoe7tRfoJeC-59" value="" style="endArrow=none;html=1;shadow=0;strokeWidth=1;exitX=1;exitY=0.5;exitDx=0;exitDy=0;" parent="1" source="7Rne0SJ-TNoe7tRfoJeC-57" edge="1">
          <mxGeometry width="50" height="50" relative="1" as="geometry">
            <mxPoint x="209" y="168" as="sourcePoint" />
            <mxPoint x="259" y="118" as="targetPoint" />
            <Array as="points" />
          </mxGeometry>
        </mxCell>
        <mxCell id="7Rne0SJ-TNoe7tRfoJeC-61" value="" style="endArrow=none;html=1;shadow=0;strokeWidth=1;" parent="1" edge="1">
          <mxGeometry width="50" height="50" relative="1" as="geometry">
            <mxPoint x="366" y="193" as="sourcePoint" />
            <mxPoint x="479" y="193" as="targetPoint" />
          </mxGeometry>
        </mxCell>
        <mxCell id="7Rne0SJ-TNoe7tRfoJeC-62" value="" style="endArrow=none;html=1;shadow=0;strokeWidth=1;" parent="1" edge="1">
          <mxGeometry width="50" height="50" relative="1" as="geometry">
            <mxPoint x="479" y="237" as="sourcePoint" />
            <mxPoint x="479" y="193" as="targetPoint" />
          </mxGeometry>
        </mxCell>
        <mxCell id="7Rne0SJ-TNoe7tRfoJeC-63" value="" style="endArrow=none;html=1;shadow=0;strokeWidth=1;" parent="1" edge="1">
          <mxGeometry width="50" height="50" relative="1" as="geometry">
            <mxPoint x="307" y="391" as="sourcePoint" />
            <mxPoint x="307.25" y="218" as="targetPoint" />
          </mxGeometry>
        </mxCell>
        <mxCell id="7Rne0SJ-TNoe7tRfoJeC-64" value="" style="endArrow=none;html=1;shadow=0;strokeWidth=1;" parent="1" edge="1">
          <mxGeometry width="50" height="50" relative="1" as="geometry">
            <mxPoint x="309" y="391" as="sourcePoint" />
            <mxPoint x="524" y="391" as="targetPoint" />
          </mxGeometry>
        </mxCell>
        <mxCell id="7Rne0SJ-TNoe7tRfoJeC-66" value="O" style="ellipse;whiteSpace=wrap;html=1;" parent="1" vertex="1">
          <mxGeometry x="530" y="293" width="100" height="30" as="geometry" />
        </mxCell>
        <mxCell id="7Rne0SJ-TNoe7tRfoJeC-67" value="P" style="rhombus;whiteSpace=wrap;html=1;direction=south;" parent="1" vertex="1">
          <mxGeometry x="523.63" y="372" width="114.37" height="38.5" as="geometry" />
        </mxCell>
        <mxCell id="7Rne0SJ-TNoe7tRfoJeC-68" value="" style="endArrow=none;html=1;shadow=0;strokeWidth=1;" parent="1" edge="1">
          <mxGeometry width="50" height="50" relative="1" as="geometry">
            <mxPoint x="580.3199999999999" y="372" as="sourcePoint" />
            <mxPoint x="580.3199999999999" y="322" as="targetPoint" />
          </mxGeometry>
        </mxCell>
        <mxCell id="7Rne0SJ-TNoe7tRfoJeC-69" value="" style="endArrow=none;html=1;shadow=0;strokeWidth=1;" parent="1" edge="1">
          <mxGeometry width="50" height="50" relative="1" as="geometry">
            <mxPoint x="667" y="392" as="sourcePoint" />
            <mxPoint x="667" y="267" as="targetPoint" />
          </mxGeometry>
        </mxCell>
        <mxCell id="7Rne0SJ-TNoe7tRfoJeC-70" value="" style="endArrow=none;html=1;shadow=0;strokeWidth=1;" parent="1" edge="1">
          <mxGeometry width="50" height="50" relative="1" as="geometry">
            <mxPoint x="638" y="390.75" as="sourcePoint" />
            <mxPoint x="667" y="391" as="targetPoint" />
          </mxGeometry>
        </mxCell>
        <mxCell id="7Rne0SJ-TNoe7tRfoJeC-71" value="" style="endArrow=none;html=1;shadow=0;strokeWidth=1;" parent="1" edge="1">
          <mxGeometry width="50" height="50" relative="1" as="geometry">
            <mxPoint x="691" y="410" as="sourcePoint" />
            <mxPoint x="691" y="267" as="targetPoint" />
          </mxGeometry>
        </mxCell>
        <mxCell id="7Rne0SJ-TNoe7tRfoJeC-72" value="" style="endArrow=none;html=1;shadow=0;strokeWidth=1;" parent="1" edge="1">
          <mxGeometry width="50" height="50" relative="1" as="geometry">
            <mxPoint x="579" y="410.5" as="sourcePoint" />
            <mxPoint x="692" y="411" as="targetPoint" />
          </mxGeometry>
        </mxCell>
        <mxCell id="pDwSMRZJcnOoSfiabgKo-3" value="K, L" style="text;html=1;strokeColor=none;fillColor=none;align=center;verticalAlign=middle;whiteSpace=wrap;rounded=0;rotation=270;" vertex="1" parent="1">
          <mxGeometry x="560" y="178" width="40" height="20" as="geometry" />
        </mxCell>
      </root>
    </mxGraphModel>
  </diagram>
</mxfile>
